<svg width="1440" height="1024" viewBox="0 0 1440 1024" fill="none" xmlns="http://www.w3.org/2000/svg">
<path d="M-267.888 699.965C56.4624 716.263 262.287 814.579 393.641 907.823C503.142 985.565 516.455 1028.26 621.442 1078.2C849.271 1186.57 1214.76 1189.17 1322.82 990.879C1376.05 893.199 1316.26 813.459 1294.67 630.798C1275.25 466.482 1289.02 226.479 1451.45 -85.3918" stroke="#03256C" stroke-opacity="0.06" stroke-width="1.58466" stroke-miterlimit="10"/>
<path d="M-254.498 736.81C56.4865 739.66 257.672 829.537 386.23 914.853C494.409 986.668 513.964 1023.59 623.363 1070.52C852.857 1168.97 1196.9 1173.73 1308.51 984.983C1366.01 887.764 1316.98 806.015 1301.95 621.643C1288.72 459.323 1305.49 222.301 1464.46 -86.0813" stroke="#03256C" stroke-opacity="0.06" stroke-width="1.58466" stroke-miterlimit="10"/>
<path d="M-241.11 773.647C56.5053 763.058 253.182 844.491 378.834 921.877C485.878 987.804 511.341 1018.97 625.299 1062.83C856.138 1151.69 1179.61 1158.39 1294.23 979.082C1356.14 882.213 1317.61 798.698 1309.25 612.484C1302.06 452.25 1321.99 218.131 1477.53 -86.7589" stroke="#03256C" stroke-opacity="0.06" stroke-width="1.58466" stroke-miterlimit="10"/>
<path d="M-227.721 810.491C56.5258 786.462 248.853 859.43 371.449 928.933C477.478 989.005 508.583 1014.44 627.254 1055.13C859.157 1134.72 1162.89 1143.16 1279.96 973.173C1346.47 876.597 1318.14 791.499 1316.56 603.316C1315.23 445.273 1338.5 213.956 1490.56 -87.4439" stroke="#03256C" stroke-opacity="0.06" stroke-width="1.58466" stroke-miterlimit="10"/>
<path d="M-214.331 847.329C56.5685 809.842 244.701 874.309 364.047 935.932C469.242 990.241 505.754 1009.98 629.161 1047.46C861.88 1118.1 1146.65 1128.12 1265.64 967.28C1336.93 870.918 1318.5 784.407 1323.83 594.163C1328.2 438.375 1354.97 209.789 1503.58 -88.0929" stroke="#03256C" stroke-opacity="0.06" stroke-width="1.58466" stroke-miterlimit="10"/>
<path d="M-200.943 884.168C56.5669 833.248 240.739 889.127 356.652 942.957C461.199 991.508 502.764 1005.66 631.096 1039.77C864.431 1101.79 1130.92 1113.25 1251.34 961.384C1327.59 865.219 1318.69 777.405 1331.12 585.002C1341.02 431.524 1371.47 205.622 1516.61 -88.8034" stroke="#03256C" stroke-opacity="0.06" stroke-width="1.58466" stroke-miterlimit="10"/>
<path d="M-187.555 921.006C56.5768 856.621 236.984 903.816 349.256 949.981C453.354 992.787 499.716 1001.45 633.027 1032.08C866.823 1085.79 1115.64 1098.6 1237.05 955.482C1318.44 859.537 1318.77 770.44 1338.42 575.845C1353.68 424.707 1387.98 201.446 1529.64 -89.4818" stroke="#03256C" stroke-opacity="0.06" stroke-width="1.58466" stroke-miterlimit="10"/>
<path d="M-174.146 957.843C56.6229 880.033 233.477 918.356 341.881 956.999C445.75 994.028 496.64 997.366 634.979 1024.39C869.105 1070.09 1100.8 1084.15 1222.78 949.573C1309.51 853.89 1318.67 763.528 1345.73 566.677C1366.16 417.922 1404.45 197.301 1542.68 -90.1666" stroke="#03256C" stroke-opacity="0.06" stroke-width="1.58466" stroke-miterlimit="10"/>
<path d="M-160.778 994.688C56.6217 903.439 230.157 932.704 334.467 964.036C438.353 995.221 493.447 993.483 636.893 1016.71C871.276 1054.68 1086.31 1069.95 1208.46 943.683C1300.73 848.33 1318.34 756.636 1353 557.523C1378.49 411.137 1420.94 193.112 1555.74 -90.8608" stroke="#03256C" stroke-opacity="0.06" stroke-width="1.58466" stroke-miterlimit="10"/>
<path d="M-147.396 1031.51C56.6402 926.82 227.07 946.782 327.066 971.045C431.157 996.297 490.229 989.666 638.819 1009C873.367 1039.52 1072.13 1055.97 1194.16 937.766C1292.14 842.869 1317.84 749.718 1360.29 548.346C1390.65 404.33 1437.43 188.927 1568.74 -91.5508" stroke="#03256C" stroke-opacity="0.06" stroke-width="1.58466" stroke-miterlimit="10"/>
<path d="M-133.999 1068.37C56.692 950.225 224.206 960.6 319.683 978.083C424.218 997.229 487.017 986.061 640.761 1001.33C875.457 1024.64 1058.27 1042.27 1179.88 931.885C1283.76 837.586 1317.16 742.801 1367.59 539.2C1402.68 397.535 1453.93 184.774 1581.79 -92.2105" stroke="#03256C" stroke-opacity="0.06" stroke-width="1.58466" stroke-miterlimit="10"/>
<path d="M-120.611 1105.21C56.6832 973.627 221.511 974.065 312.288 985.107C417.464 997.905 483.812 982.595 642.692 993.642C877.531 1009.96 1044.65 1028.8 1165.58 925.982C1275.57 832.48 1316.27 735.819 1374.89 530.043C1414.58 390.688 1470.42 180.6 1594.82 -92.8997" stroke="#03256C" stroke-opacity="0.06" stroke-width="1.58466" stroke-miterlimit="10"/>
<path d="M-107.221 1142.05C56.7021 997.026 218.942 987.166 304.894 992.137C410.865 998.264 480.568 979.299 644.629 985.956C879.62 995.491 1031.24 1015.57 1151.29 920.079C1267.55 827.607 1315.2 728.772 1382.18 520.881C1426.34 383.799 1486.91 176.433 1607.86 -93.5847" stroke="#03256C" stroke-opacity="0.06" stroke-width="1.58466" stroke-miterlimit="10"/>
<path d="M-93.8334 1178.89C56.7261 1020.42 216.453 999.882 297.499 999.162C404.359 998.212 477.365 976.156 646.548 978.27C881.721 981.208 1017.97 1002.57 1136.99 914.186C1259.74 823 1313.93 721.634 1389.46 511.724C1438.01 376.85 1503.4 172.249 1620.89 -94.2524" stroke="#03256C" stroke-opacity="0.06" stroke-width="1.58466" stroke-miterlimit="10"/>
<path d="M-80.4455 1215.73C56.7431 1043.82 213.968 1012.21 290.083 1006.19C397.831 997.666 474.17 973.169 648.474 970.586C883.876 967.095 1004.83 989.86 1122.69 908.287C1252.1 818.714 1312.48 714.389 1396.74 502.55C1449.54 369.829 1519.87 168.081 1633.9 -94.9616" stroke="#03256C" stroke-opacity="0.06" stroke-width="1.58466" stroke-miterlimit="10"/>
<path d="M-67.056 1252.57C56.7875 1067.21 211.414 1024.18 282.708 1013.21C391.228 996.521 471.053 970.323 650.424 962.889C886.104 953.147 991.805 977.355 1108.41 902.383C1244.65 814.78 1310.88 707.033 1404.06 493.402C1461.05 362.749 1536.39 163.922 1646.96 -95.6315" stroke="#03256C" stroke-opacity="0.06" stroke-width="1.58466" stroke-miterlimit="10"/>
<path d="M-53.6421 1289.4C56.8067 1090.61 215.858 1054.12 275.34 1020.23C372.63 964.802 467.993 967.625 652.386 955.194C888.407 939.295 978.803 965.093 1094.12 896.482C1237.36 811.276 1309.1 699.508 1411.35 484.241C1472.46 355.6 1552.88 159.754 1660 -96.2959" stroke="#03256C" stroke-opacity="0.06" stroke-width="1.58466" stroke-miterlimit="10"/>
<path d="M-40.2784 1326.25C56.8065 1114.01 212.529 1061.99 267.921 1027.26C365.007 966.4 464.93 965.082 654.293 947.517C890.787 925.599 965.786 953.083 1079.83 890.58C1230.2 808.203 1307.18 691.858 1418.65 475.069C1483.81 348.349 1569.37 155.57 1673.02 -97.0105" stroke="#03256C" stroke-opacity="0.06" stroke-width="1.58466" stroke-miterlimit="10"/>
<path d="M-26.8887 1363.09C56.8236 1137.4 208.285 1069.52 260.525 1034.29C358.042 968.524 461.952 962.671 656.237 939.852C893.236 911.989 952.73 941.276 1065.54 884.709C1223.18 805.663 1305.13 684.075 1425.95 465.943C1495.12 341.065 1585.88 151.426 1686.07 -97.6594" stroke="#03256C" stroke-opacity="0.06" stroke-width="1.58466" stroke-miterlimit="10"/>
<path d="M-13.5009 1399.93C56.8424 1160.8 198.611 1069.65 253.135 1041.31C360.545 985.534 459.049 960.376 658.17 932.154C895.786 898.452 939.586 929.666 1051.25 878.794C1216.23 803.614 1302.93 676.066 1433.25 456.752C1506.4 333.628 1602.37 147.238 1699.1 -98.3709" stroke="#03256C" stroke-opacity="0.06" stroke-width="1.58466" stroke-miterlimit="10"/>
<path d="M-0.112988 1436.77C56.8613 1184.2 194.473 1080.84 245.736 1048.34C351.134 981.54 456.202 958.213 660.094 924.466C898.412 885.004 926.312 918.279 1036.95 872.895C1209.35 802.179 1300.65 667.959 1440.53 447.61C1517.64 326.146 1618.86 143.085 1712.14 -99.0386" stroke="#03256C" stroke-opacity="0.06" stroke-width="1.58466" stroke-miterlimit="10"/>
<path d="M13.2764 1473.61C56.8851 1207.6 189.851 1092.21 238.341 1055.37C340.938 977.403 453.434 956.16 662.027 916.77C901.143 871.613 912.882 907.074 1022.66 866.986C1202.49 801.298 1298.26 659.649 1447.83 438.442C1528.88 318.585 1635.34 138.902 1725.17 -99.7334" stroke="#03256C" stroke-opacity="0.06" stroke-width="1.58466" stroke-miterlimit="10"/>
</svg>
