<svg width="1920" height="1080" viewBox="0 0 1920 1080" fill="none" xmlns="http://www.w3.org/2000/svg">
<path d="M20.8103 759.497C345.161 775.794 550.985 874.11 682.339 967.354C791.84 1045.1 805.153 1087.79 910.14 1137.73C1137.97 1246.1 1503.45 1248.7 1611.52 1050.41C1664.75 952.73 1604.96 872.99 1583.37 690.33C1563.95 526.013 1577.72 286.01 1740.14 -25.8606" stroke="#03256C" stroke-opacity="0.06" stroke-width="1.58466" stroke-miterlimit="10"/>
<path d="M34.2 796.34C345.185 799.191 546.37 889.068 674.928 974.384C783.108 1046.2 802.662 1083.12 912.061 1130.05C1141.56 1228.5 1485.6 1233.27 1597.21 1044.51C1654.71 947.295 1605.68 865.546 1590.65 681.174C1577.41 518.854 1594.19 281.832 1753.16 -26.5506" stroke="#03256C" stroke-opacity="0.06" stroke-width="1.58466" stroke-miterlimit="10"/>
<path d="M47.5878 833.179C345.203 822.59 541.88 904.023 667.533 981.409C774.577 1047.34 800.04 1078.5 913.997 1122.36C1144.84 1211.22 1468.31 1217.92 1582.93 1038.61C1644.84 941.745 1606.31 858.23 1597.95 672.016C1590.76 511.782 1610.69 277.662 1766.22 -27.2271" stroke="#03256C" stroke-opacity="0.06" stroke-width="1.58466" stroke-miterlimit="10"/>
<path d="M60.9773 870.022C345.224 845.993 537.552 918.961 660.148 988.464C766.177 1048.54 797.281 1073.97 915.952 1114.67C1147.85 1194.26 1451.59 1202.69 1568.65 1032.7C1635.17 936.128 1606.84 851.03 1605.26 662.847C1603.93 504.804 1627.2 273.487 1779.26 -27.9127" stroke="#03256C" stroke-opacity="0.06" stroke-width="1.58466" stroke-miterlimit="10"/>
<path d="M74.3671 906.86C345.267 869.373 533.399 933.84 652.745 995.463C757.94 1049.77 794.453 1069.51 917.86 1106.99C1150.58 1177.63 1435.35 1187.65 1554.34 1026.81C1625.63 930.45 1607.19 843.938 1612.53 653.694C1616.9 497.906 1643.67 269.321 1792.28 -28.5617" stroke="#03256C" stroke-opacity="0.06" stroke-width="1.58466" stroke-miterlimit="10"/>
<path d="M87.755 943.698C345.265 892.779 529.437 948.658 645.35 1002.49C749.897 1051.04 791.463 1065.19 919.794 1099.3C1153.13 1161.32 1419.62 1172.78 1540.04 1020.91C1616.29 924.75 1607.38 836.936 1619.82 644.533C1629.72 491.055 1660.16 265.152 1805.31 -29.2726" stroke="#03256C" stroke-opacity="0.06" stroke-width="1.58466" stroke-miterlimit="10"/>
<path d="M101.143 980.537C345.275 916.151 525.683 963.346 637.954 1009.51C742.053 1052.32 788.414 1060.98 921.726 1091.61C1155.52 1145.33 1404.34 1158.13 1525.75 1015.01C1607.14 919.067 1607.47 829.971 1627.12 635.376C1642.38 484.238 1676.68 260.977 1818.34 -29.951" stroke="#03256C" stroke-opacity="0.06" stroke-width="1.58466" stroke-miterlimit="10"/>
<path d="M114.552 1017.37C345.321 939.564 522.175 977.887 630.579 1016.53C734.448 1053.56 785.339 1056.9 923.677 1083.92C1157.8 1129.62 1389.5 1143.68 1511.47 1009.1C1598.2 913.421 1607.37 823.059 1634.43 626.208C1654.86 477.452 1693.15 256.832 1831.38 -30.6358" stroke="#03256C" stroke-opacity="0.06" stroke-width="1.58466" stroke-miterlimit="10"/>
<path d="M127.92 1054.22C345.32 962.97 518.855 992.235 623.165 1023.57C727.051 1054.75 782.145 1053.01 925.592 1076.24C1159.97 1114.21 1375 1129.48 1497.16 1003.21C1589.43 907.861 1607.04 816.167 1641.7 617.054C1667.19 470.668 1709.64 252.643 1844.44 -31.33" stroke="#03256C" stroke-opacity="0.06" stroke-width="1.58466" stroke-miterlimit="10"/>
<path d="M141.303 1091.04C345.338 986.352 515.769 1006.31 615.765 1030.58C719.856 1055.83 778.927 1049.2 927.517 1068.54C1162.07 1099.05 1360.83 1115.5 1482.86 997.297C1580.83 902.401 1606.54 809.249 1648.99 607.877C1679.35 463.861 1726.13 248.458 1857.44 -32.0195" stroke="#03256C" stroke-opacity="0.06" stroke-width="1.58466" stroke-miterlimit="10"/>
<path d="M154.7 1127.9C345.39 1009.76 512.904 1020.13 608.382 1037.61C712.916 1056.76 775.716 1045.59 929.459 1060.86C1164.16 1084.17 1346.97 1101.8 1468.58 991.415C1572.46 897.117 1605.85 802.332 1656.29 598.73C1691.38 457.066 1742.63 244.305 1870.49 -32.6797" stroke="#03256C" stroke-opacity="0.06" stroke-width="1.58466" stroke-miterlimit="10"/>
<path d="M168.087 1164.74C345.382 1033.16 510.209 1033.6 600.986 1044.64C706.162 1057.44 772.51 1042.13 931.39 1053.17C1166.23 1069.49 1333.35 1088.33 1454.28 985.513C1564.26 892.011 1604.97 795.35 1663.59 589.574C1703.27 450.22 1759.12 240.132 1883.52 -33.3684" stroke="#03256C" stroke-opacity="0.06" stroke-width="1.58466" stroke-miterlimit="10"/>
<path d="M181.477 1201.58C345.4 1056.56 507.64 1046.7 593.592 1051.67C699.563 1057.8 769.266 1038.83 933.327 1045.49C1168.32 1055.02 1319.94 1075.11 1439.99 979.61C1556.24 887.138 1603.9 788.303 1670.88 580.412C1715.04 443.331 1775.61 235.964 1896.55 -34.0535" stroke="#03256C" stroke-opacity="0.06" stroke-width="1.58466" stroke-miterlimit="10"/>
<path d="M194.865 1238.42C345.424 1079.95 505.151 1059.41 586.197 1058.69C693.057 1057.74 766.063 1035.69 935.246 1037.8C1170.42 1040.74 1306.67 1062.1 1425.69 973.717C1548.44 882.53 1602.62 781.165 1678.16 571.254C1726.7 436.381 1792.1 231.78 1909.59 -34.7216" stroke="#03256C" stroke-opacity="0.06" stroke-width="1.58466" stroke-miterlimit="10"/>
<path d="M208.253 1275.26C345.441 1103.35 502.667 1071.74 578.781 1065.72C686.529 1057.2 762.868 1032.7 937.172 1030.12C1172.57 1026.63 1293.53 1049.39 1411.38 967.818C1540.79 878.246 1601.17 773.92 1685.44 562.081C1738.24 429.36 1808.57 227.612 1922.6 -35.4303" stroke="#03256C" stroke-opacity="0.06" stroke-width="1.58466" stroke-miterlimit="10"/>
<path d="M221.642 1312.1C345.486 1126.74 500.112 1083.71 571.406 1072.74C679.927 1056.05 759.751 1029.86 939.122 1022.42C1174.8 1012.68 1280.5 1036.89 1397.11 961.915C1533.35 874.311 1599.58 766.565 1692.76 552.934C1749.74 422.281 1825.09 223.453 1935.66 -36.0997" stroke="#03256C" stroke-opacity="0.06" stroke-width="1.58466" stroke-miterlimit="10"/>
<path d="M235.056 1348.93C345.505 1150.14 504.557 1113.65 564.038 1079.76C661.328 1024.33 756.691 1027.16 941.084 1014.73C1177.1 998.826 1267.5 1024.62 1382.82 956.013C1526.06 870.807 1597.8 759.039 1700.05 543.772C1761.15 415.131 1841.58 219.285 1948.7 -36.7646" stroke="#03256C" stroke-opacity="0.06" stroke-width="1.58466" stroke-miterlimit="10"/>
<path d="M248.42 1385.78C345.505 1173.54 501.227 1121.52 556.619 1086.8C653.706 1025.93 753.628 1024.61 942.992 1007.05C1179.49 985.13 1254.48 1012.61 1368.53 950.111C1518.9 867.734 1595.88 751.389 1707.34 534.6C1772.51 407.88 1858.07 215.101 1961.72 -37.4793" stroke="#03256C" stroke-opacity="0.06" stroke-width="1.58466" stroke-miterlimit="10"/>
<path d="M261.809 1422.62C345.522 1196.94 496.984 1129.05 549.223 1093.82C646.74 1028.05 750.65 1022.2 944.935 999.382C1181.93 971.519 1241.43 1000.81 1354.24 944.24C1511.88 865.194 1593.83 743.606 1714.65 525.474C1783.82 400.596 1874.57 210.957 1974.77 -38.1287" stroke="#03256C" stroke-opacity="0.06" stroke-width="1.58466" stroke-miterlimit="10"/>
<path d="M275.197 1459.46C345.541 1220.33 487.309 1129.18 541.833 1100.84C649.243 1045.07 747.747 1019.91 946.868 991.686C1184.48 957.984 1228.28 989.198 1339.95 938.326C1504.93 863.146 1591.63 735.597 1721.94 516.284C1795.1 393.16 1891.07 206.77 1987.8 -38.8391" stroke="#03256C" stroke-opacity="0.06" stroke-width="1.58466" stroke-miterlimit="10"/>
<path d="M288.585 1496.3C345.559 1243.73 483.171 1140.37 534.434 1107.87C639.832 1041.07 744.9 1017.74 948.792 983.997C1187.11 944.536 1215.01 977.811 1325.65 932.426C1498.05 861.71 1589.35 727.49 1729.23 507.141C1806.34 385.677 1907.56 202.616 2000.84 -39.5073" stroke="#03256C" stroke-opacity="0.06" stroke-width="1.58466" stroke-miterlimit="10"/>
<path d="M301.975 1533.14C345.583 1267.13 478.549 1151.74 527.039 1114.9C629.636 1036.93 742.132 1015.69 950.725 976.3C1189.84 931.143 1201.58 966.604 1311.36 926.517C1491.18 860.829 1586.96 719.18 1736.53 497.973C1817.58 378.116 1924.04 198.432 2013.87 -40.2027" stroke="#03256C" stroke-opacity="0.06" stroke-width="1.58466" stroke-miterlimit="10"/>
</svg>
