<svg width="1683" height="1080" viewBox="0 0 1683 1080" fill="none" xmlns="http://www.w3.org/2000/svg">
<path d="M58.8103 796.497C383.161 812.794 588.985 911.11 720.339 1004.35C829.84 1082.1 843.153 1124.79 948.14 1174.73C1175.97 1283.1 1541.45 1285.7 1649.52 1087.41C1702.75 989.731 1642.96 909.991 1621.37 727.33C1601.95 563.013 1615.72 323.01 1778.14 11.1397" stroke="#03256C" stroke-opacity="0.2" stroke-width="1.58466" stroke-miterlimit="10"/>
<path d="M72.2 833.341C383.185 836.191 584.37 926.068 712.928 1011.38C821.108 1083.2 840.662 1120.12 950.061 1167.05C1179.56 1265.5 1523.6 1270.27 1635.21 1081.51C1692.71 984.295 1643.68 902.546 1628.65 718.174C1615.41 555.854 1632.19 318.832 1791.16 10.4498" stroke="#03256C" stroke-opacity="0.2" stroke-width="1.58466" stroke-miterlimit="10"/>
<path d="M85.5878 870.179C383.204 859.59 579.88 941.023 705.533 1018.41C812.577 1084.34 838.04 1115.5 951.997 1159.36C1182.84 1248.22 1506.31 1254.92 1620.93 1075.61C1682.84 978.745 1644.31 895.23 1635.95 709.016C1628.76 548.782 1648.69 314.663 1804.22 9.77303" stroke="#03256C" stroke-opacity="0.2" stroke-width="1.58466" stroke-miterlimit="10"/>
<path d="M98.9774 907.023C383.224 882.994 575.552 955.962 698.148 1025.46C804.177 1085.54 835.281 1110.97 953.952 1151.67C1185.85 1231.26 1489.59 1239.7 1606.65 1069.71C1673.17 973.128 1644.84 888.03 1643.26 699.847C1641.93 541.805 1665.2 310.487 1817.26 9.08788" stroke="#03256C" stroke-opacity="0.2" stroke-width="1.58466" stroke-miterlimit="10"/>
<path d="M112.367 943.86C383.267 906.373 571.399 970.84 690.745 1032.46C795.94 1086.77 832.452 1106.51 955.86 1143.99C1188.58 1214.63 1473.35 1224.65 1592.34 1063.81C1663.63 967.45 1645.19 880.938 1650.53 690.694C1654.9 534.906 1681.67 306.321 1830.28 8.43844" stroke="#03256C" stroke-opacity="0.2" stroke-width="1.58466" stroke-miterlimit="10"/>
<path d="M125.755 980.699C383.265 929.779 567.437 985.658 683.35 1039.49C787.897 1088.04 829.463 1102.19 957.794 1136.3C1191.13 1198.33 1457.62 1209.78 1578.04 1057.91C1654.29 961.75 1645.38 873.936 1657.82 681.533C1667.72 528.055 1698.16 302.153 1843.31 7.72781" stroke="#03256C" stroke-opacity="0.2" stroke-width="1.58466" stroke-miterlimit="10"/>
<path d="M139.143 1017.54C383.275 953.152 563.682 1000.35 675.954 1046.51C780.053 1089.32 826.414 1097.98 959.726 1128.61C1193.52 1182.33 1442.34 1195.13 1563.75 1052.01C1645.14 956.068 1645.47 866.971 1665.12 672.377C1680.38 521.238 1714.68 297.978 1856.34 7.04938" stroke="#03256C" stroke-opacity="0.2" stroke-width="1.58466" stroke-miterlimit="10"/>
<path d="M152.553 1054.37C383.321 976.564 560.175 1014.89 668.579 1053.53C772.448 1090.56 823.339 1093.9 961.677 1120.92C1195.8 1166.62 1427.5 1180.68 1549.47 1046.1C1636.2 950.421 1645.37 860.059 1672.43 663.208C1692.86 514.453 1731.15 293.832 1869.38 6.36464" stroke="#03256C" stroke-opacity="0.2" stroke-width="1.58466" stroke-miterlimit="10"/>
<path d="M165.92 1091.22C383.32 999.97 556.855 1029.24 661.165 1060.57C765.052 1091.75 820.145 1090.01 963.592 1113.24C1197.97 1151.21 1413 1166.48 1535.16 1040.21C1627.43 944.861 1645.04 853.168 1679.7 654.054C1705.19 507.669 1747.64 289.644 1882.44 5.67045" stroke="#03256C" stroke-opacity="0.2" stroke-width="1.58466" stroke-miterlimit="10"/>
<path d="M179.303 1128.04C383.338 1023.35 553.769 1043.31 653.765 1067.58C757.856 1092.83 816.927 1086.2 965.517 1105.54C1200.07 1136.06 1398.83 1152.5 1520.86 1034.3C1618.83 939.401 1644.54 846.249 1686.99 644.877C1717.35 500.861 1764.13 285.459 1895.44 4.9808" stroke="#03256C" stroke-opacity="0.2" stroke-width="1.58466" stroke-miterlimit="10"/>
<path d="M192.7 1164.9C383.39 1046.76 550.904 1057.13 646.382 1074.61C750.916 1093.76 813.716 1082.59 967.459 1097.86C1202.16 1121.17 1384.97 1138.8 1506.58 1028.42C1610.46 934.118 1643.85 839.332 1694.29 635.731C1729.38 494.066 1780.63 281.305 1908.49 4.32061" stroke="#03256C" stroke-opacity="0.2" stroke-width="1.58466" stroke-miterlimit="10"/>
<path d="M206.087 1201.74C383.381 1070.16 548.209 1070.6 638.986 1081.64C744.162 1094.44 810.51 1079.13 969.39 1090.17C1204.23 1106.49 1371.35 1125.33 1492.28 1022.51C1602.26 929.011 1642.97 832.351 1701.59 626.574C1741.27 487.22 1797.12 277.132 1921.52 3.63194" stroke="#03256C" stroke-opacity="0.2" stroke-width="1.58466" stroke-miterlimit="10"/>
<path d="M219.477 1238.58C383.4 1093.56 545.64 1083.7 631.592 1088.67C737.563 1094.8 807.266 1075.83 971.327 1082.49C1206.32 1092.02 1357.94 1112.11 1477.99 1016.61C1594.24 924.138 1641.9 825.303 1708.88 617.413C1753.04 480.331 1813.61 272.964 1934.55 2.94676" stroke="#03256C" stroke-opacity="0.2" stroke-width="1.58466" stroke-miterlimit="10"/>
<path d="M232.865 1275.42C383.424 1116.95 543.151 1096.41 624.197 1095.69C731.057 1094.74 804.063 1072.69 973.246 1074.8C1208.42 1077.74 1344.67 1099.1 1463.69 1010.72C1586.44 919.531 1640.62 818.165 1716.16 608.255C1764.7 473.381 1830.1 268.781 1947.59 2.27893" stroke="#03256C" stroke-opacity="0.2" stroke-width="1.58466" stroke-miterlimit="10"/>
<path d="M246.253 1312.26C383.441 1140.35 540.667 1108.74 616.781 1102.72C724.53 1094.2 800.868 1069.7 975.172 1067.12C1210.57 1063.63 1331.53 1086.39 1449.38 1004.82C1578.79 915.246 1639.17 810.921 1723.44 599.082C1776.24 466.361 1846.57 264.613 1960.6 1.57011" stroke="#03256C" stroke-opacity="0.2" stroke-width="1.58466" stroke-miterlimit="10"/>
<path d="M259.642 1349.1C383.486 1163.74 538.112 1120.71 609.406 1109.74C717.927 1093.05 797.751 1066.86 977.122 1059.42C1212.8 1049.68 1318.5 1073.89 1435.11 998.915C1571.35 911.311 1637.58 803.565 1730.76 589.934C1787.74 459.281 1863.09 260.453 1973.66 0.900374" stroke="#03256C" stroke-opacity="0.2" stroke-width="1.58466" stroke-miterlimit="10"/>
<path d="M273.056 1385.93C383.505 1187.14 542.557 1150.65 602.038 1116.76C699.328 1061.33 794.691 1064.16 979.084 1051.73C1215.1 1035.83 1305.5 1061.62 1420.82 993.013C1564.06 907.807 1635.8 796.039 1738.05 580.772C1799.15 452.131 1879.58 256.285 1986.7 0.235628" stroke="#03256C" stroke-opacity="0.2" stroke-width="1.58466" stroke-miterlimit="10"/>
<path d="M286.42 1422.78C383.505 1210.54 539.227 1158.52 594.619 1123.8C691.706 1062.93 791.628 1061.61 980.992 1044.05C1217.49 1022.13 1292.48 1049.61 1406.53 987.111C1556.9 904.734 1633.88 788.39 1745.34 571.6C1810.51 444.881 1896.07 252.101 1999.72 -0.479037" stroke="#03256C" stroke-opacity="0.2" stroke-width="1.58466" stroke-miterlimit="10"/>
<path d="M299.81 1459.62C383.522 1233.94 534.984 1166.05 587.224 1130.82C684.74 1065.06 788.65 1059.2 982.935 1036.38C1219.93 1008.52 1279.43 1037.81 1392.24 981.24C1549.88 902.194 1631.83 780.606 1752.65 562.475C1821.82 437.597 1912.57 247.957 2012.77 -1.12821" stroke="#03256C" stroke-opacity="0.2" stroke-width="1.58466" stroke-miterlimit="10"/>
<path d="M313.197 1496.46C383.541 1257.33 525.309 1166.18 579.833 1137.84C687.243 1082.07 785.747 1056.91 984.868 1028.69C1222.48 994.984 1266.28 1026.2 1377.95 975.326C1542.93 900.146 1629.63 772.598 1759.94 553.284C1833.1 430.16 1929.07 243.77 2025.8 -1.83885" stroke="#03256C" stroke-opacity="0.2" stroke-width="1.58466" stroke-miterlimit="10"/>
<path d="M326.585 1533.3C383.56 1280.73 521.171 1177.37 572.434 1144.88C677.832 1078.07 782.9 1054.74 986.792 1021C1225.11 981.536 1253.01 1014.81 1363.65 969.426C1536.05 898.71 1627.35 764.491 1767.23 544.142C1844.34 422.678 1945.56 239.616 2038.84 -2.50676" stroke="#03256C" stroke-opacity="0.2" stroke-width="1.58466" stroke-miterlimit="10"/>
<path d="M339.975 1570.14C383.583 1304.13 516.549 1188.74 565.039 1151.9C667.636 1073.93 780.132 1052.69 988.725 1013.3C1227.84 968.144 1239.58 1003.6 1349.36 963.518C1529.18 897.829 1624.96 756.18 1774.53 534.973C1855.58 415.116 1962.04 235.433 2051.87 -3.2022" stroke="#03256C" stroke-opacity="0.2" stroke-width="1.58466" stroke-miterlimit="10"/>
</svg>
